# xmcd
# Track frame offsets:
# 150
# 13828
# 24691
# 35972
# 45263
# 55726
# 67391
# 82033
# 91530
# 102555
# 118441
# 129769
# 141414
# 150398
# 160326
# 173512
# 185813
# 198121
# 208549
# 219555
# 230590
# 242642
# 253973
# 266266
# 276573
#
# Disc length: 3860 seconds
# Revision: 0
# Processed by: cddbd v1.5.2PL0 Copyright (c) Steve Scherf et al.
# Submitted via: VisiTrax 2.11.3.279 - For more info visit www.synapsa.com
#
DISCID=730f1219
DTITLE=Various (1950's-1960s) Blues and Soul and R&B Artists - A Shot Of Rhyth
DTITLE=m and Blues: 50 Original R&B Classics: CD2 of 2: *ReMastered Tracks
DYEAR=2013
DGENRE=R&B
TTITLE0=Etta James - Seven Day Fool*
TTITLE1=Titus Turner - Hungry Man*
TTITLE2=El Pauling and Royal Abbt - Here It 'Tis Right Here*
TTITLE3=Jean Dushon - Second Class Lover*
TTITLE4=Eugene Church - I Ain't Goin' For That*
TTITLE5=Gene and Eunice - Bom Bom Lulu*
TTITLE6=Bo Diddley - You Can't Judge A Book By Its Cover*
TTITLE7=Lulu Reed - What Makes You So Cold*
TTITLE8=Little Willie John - I'm Shakin'*
TTITLE9=James Brown and The Famous Flames - Night Train*
TTITLE10=LaVerne Baker - Hey Memphis*
TTITLE11=Nappy Brown - Little By Little*
TTITLE12=Niteriders The - Looking For My Baby*
TTITLE13=Baby Washington - Hush Heart*
TTITLE14=Richard Berry and The Pharohs - Have Love Will Travel*
TTITLE15=Lloyd Nolan - I Don't Know About You*
TTITLE16=Ben E King and LaVern Baker - A Help-Each-Other Romance*
TTITLE17=Marv Johnson - Come To Me*
TTITLE18=Clyde McPhatter - Tomorrow Is A Comin'
TTITLE19=Ruth Brown - Somebody Touched Me*
TTITLE20=Little Walter - My Babe*
TTITLE21=Domino's The - Sixty Minute Man*
TTITLE22=Sugar Pie Desanto - Can't Let You Go*
TTITLE23=Thurston Harris - Over And Over*
TTITLE24=Hank Ballard and The Midnighters - Work With Me Annie*
EXTD=Compilation and ReMastering: Not Now Music: 2013
EXTT0=
EXTT1=
EXTT2=
EXTT3=
EXTT4=
EXTT5=
EXTT6=
EXTT7=
EXTT8=
EXTT9=
EXTT10=
EXTT11=
EXTT12=
EXTT13=
EXTT14=
EXTT15=
EXTT16=
EXTT17=
EXTT18=
EXTT19=
EXTT20=
EXTT21=
EXTT22=
EXTT23=
EXTT24=
PLAYORDER=
